<svg xmlns="http://www.w3.org/2000/svg" viewBox="0 0 640 480"><ellipse cx="333" cy="379" rx="251" ry="19" fill="#1e3820" opacity=".1"/><path d="M145 115q0-12 12-12h337q12 0 12 12v226H145z" fill="#87958e" stroke="#69766f" stroke-width="2"/><rect x="156" y="114" width="337" height="215" rx="4" fill="#203e33"/><rect x="178" y="139" width="293" height="168" rx="3" fill="#e6e9dd"/><rect x="178" y="139" width="293" height="20" fill="#bbcbb5"/><circle cx="190" cy="149" r="3" fill="#697d63"/><circle cx="200" cy="149" r="3" fill="#8b9c7d"/><circle cx="210" cy="149" r="3" fill="#a3b096"/><rect x="193" y="175" width="80" height="114" fill="#d0d9c7"/><rect x="205" y="190" width="56" height="5" fill="#6f8064"/><rect x="205" y="205" width="43" height="4" fill="#a2b095"/><rect x="205" y="220" width="50" height="4" fill="#a2b095"/><text x="294" y="196" font-family="sans-serif" font-size="13" fill="#254231">Room for good work.</text><rect x="294" y="210" width="157" height="3" fill="#a2b095"/><rect x="294" y="220" width="121" height="3" fill="#a2b095"/><rect x="294" y="240" width="72" height="49" fill="#899d78"/><rect x="378" y="240" width="72" height="49" fill="#c1cdb4"/><path d="M145 341h361l73 25q6 8-4 13H77q-10-4-4-12z" fill="#c6ccc4" stroke="#89968a" stroke-width="2"/><path d="M162 345h326l35 14H125z" fill="#7a887c"/><path d="M284 345h88l9 14H275z" fill="#acb6a9"/><path d="M74 370h502" stroke="#e9ede6" stroke-width="3"/><circle cx="325" cy="108" r="2" fill="#435d4b"/></svg>
